<svg width="109" height="102" viewBox="0 0 109 102" fill="none" xmlns="http://www.w3.org/2000/svg">
<g clip-path="url(#clip0_112_682)">
<path d="M60.37 4.03C60.81 3.17 60.76 2.15 60.26 1.32C59.76 0.5 58.86 0 57.9 0H34.24C29.27 0 25.22 4.05 25.22 9.02V26.42C25.22 27.81 24.39 29 23.21 29.56L22.17 29.85C22.03 29.87 21.89 29.89 21.74 29.89H9.02C4.04 29.89 0 33.94 0 38.91V57.32C0 62.29 4.05 66.34 9.02 66.34H18.56C20.48 66.34 22.04 67.9 22.04 69.82V92.53C22.04 97.5 26.09 101.55 31.06 101.55H41.72H41.73H56.63C57.55 101.55 58.41 101.09 58.93 100.33C59.45 99.57 59.55 98.59 59.2 97.74C38.91 47.61 60.16 4.45 60.38 4.02L60.37 4.03Z" fill="#B5C6E6"/>
<path d="M101.28 50.5C101.2 50.57 94.07 57 85.35 58.36C89.89 43.97 99.92 36.38 100.6 35.88C101.83 34.98 102.1 33.24 101.2 32.01C100.3 30.77 98.56 30.5 97.33 31.4C97.08 31.58 76.79 46.78 77.68 74.96C74.42 67.04 72.39 59.5899 71.23 52.7099C85.01 43.0499 93.76 25.29 94.18 24.44C94.85 23.06 94.28 21.4 92.9 20.73C91.52 20.06 89.86 20.63 89.19 22.01C89.1 22.19 81.69 37.2199 70.39 46.3899C68.79 30.2199 71.9 17.92 74.21 11.4C75.5 8.33995 76.43 6.60995 76.49 6.49995C76.9 5.75995 76.92 4.92995 76.65 4.19995C76.47 3.47995 76.01 2.82995 75.31 2.43995C73.97 1.69995 72.28 2.17995 71.54 3.51995C71.32 3.90995 69.93 6.49995 68.41 10.96C62.45 25.93 51.99 62.36 71.6 100.06C72.09 101.01 73.06 101.55 74.06 101.55C74.49 101.55 74.93 101.45 75.34 101.24C76.7 100.53 77.23 98.86 76.52 97.5C68.99 83.02 66.15 68.72 65.8 55.91C65.87 55.88 65.94 55.84 66.01 55.81C68.3 67.56 73.04 80.83 81.74 95.15C81.75 95.17 81.77 95.18 81.78 95.2C81.9 95.39 82.04 95.57 82.2 95.72C82.2 95.72 82.2 95.72 82.21 95.72C82.36 95.86 82.53 95.98 82.71 96.09C82.74 96.11 82.78 96.13 82.81 96.15C82.99 96.24 83.17 96.32 83.37 96.37C83.41 96.38 83.45 96.39 83.49 96.4C83.69 96.45 83.9 96.48 84.11 96.48C84.32 96.48 84.54 96.45 84.75 96.39C84.8 96.38 84.85 96.37 84.9 96.35C84.94 96.34 84.98 96.33 85.02 96.32C85.21 96.26 85.38 96.17 85.54 96.07C85.58 96.04 85.61 96.01 85.65 95.98C85.76 95.9 85.87 95.83 85.97 95.74C86.03 95.68 86.08 95.62 86.14 95.56C86.21 95.49 86.27 95.42 86.33 95.34C86.39 95.26 86.43 95.18 86.48 95.1C86.52 95.03 86.57 94.96 86.61 94.88C86.65 94.8 86.67 94.71 86.7 94.63C86.73 94.55 86.77 94.47 86.79 94.38C86.81 94.3 86.82 94.21 86.83 94.13C86.84 94.04 86.86 93.95 86.87 93.85C86.87 93.75 86.87 93.66 86.86 93.56C86.86 93.48 86.86 93.4 86.85 93.32C86.83 93.18 86.79 93.05 86.75 92.91C86.74 92.87 86.73 92.83 86.72 92.79C86.72 92.79 86.72 92.78 86.72 92.77C83.57 83.74 82.75 75.76 83.31 68.84C85.78 72.31 89.43 78.29 91.5 85.63C91.84 86.85 92.96 87.65 94.17 87.65C94.42 87.65 94.67 87.62 94.92 87.55C96.39 87.14 97.25 85.6 96.84 84.13C94.13 74.47 89.07 67.11 86.47 63.77C96.75 62.07 104.68 54.9 105.04 54.56C106.17 53.52 106.24 51.77 105.21 50.65C104.18 49.52 102.42 49.4499 101.29 50.4799L101.28 50.5Z" fill="#B5C6E6"/>
<path d="M85.1213 19.3187C87.0812 15.3774 86.9342 11.3192 84.7929 10.2544C82.6516 9.18961 79.327 11.5215 77.3671 15.4628C75.4072 19.4041 75.5542 23.4623 77.6954 24.5271C79.8367 25.5919 83.1614 23.26 85.1213 19.3187Z" fill="#B5C6E6"/>
<path d="M107.48 39.5701C106.23 38.0801 103.63 38.1901 101.68 39.8301C99.7298 41.4601 99.1698 44.0001 100.42 45.4901C101.67 46.9801 104.27 46.8701 106.22 45.2301C108.17 43.6001 108.73 41.0601 107.48 39.5701Z" fill="#B5C6E6"/>
</g>
<defs>
<clipPath id="clip0_112_682">
<rect width="108.15" height="101.56" fill="white"/>
</clipPath>
</defs>
</svg>
