<svg width="279" height="76" viewBox="0 0 279 76" fill="none" xmlns="http://www.w3.org/2000/svg">
<g clip-path="url(#clip0_2025_620)">
<path d="M39.33 72.5297C39.46 72.2897 39.7 72.1497 39.92 71.9997C40.41 71.6597 40.93 71.3497 41.41 70.9897C45.31 68.0597 47.66 64.2097 48.35 59.3597C48.49 58.3697 48.6 57.3697 48.65 56.3797C48.79 53.6697 48.1 51.1497 46.89 48.7497C46.14 47.2597 45.22 45.8897 44.25 44.5497C43.74 43.8597 43.33 43.1097 42.92 42.3597C42.55 41.6697 42.12 41.0197 41.73 40.3297C41.1 39.2097 40.51 38.0697 40.07 36.8597C39.75 35.9697 39.63 35.0297 39.55 33.9897C39.01 34.2797 38.79 34.8897 38.77 34.9697C38.54 35.9697 38.41 36.7297 38.41 37.7597C38.41 38.9997 38.76 40.1497 39.14 41.2997C39.77 43.2097 40.72 44.9597 41.72 46.6997C42.68 48.3697 43.59 50.0697 44.31 51.8597C45 53.5797 44.92 54.9897 44.84 56.8397C44.78 58.1397 44.6 59.4197 44.23 60.6797C43.86 61.9297 43.26 63.0897 42.59 64.1997C41.97 65.2297 41.29 66.2197 40.49 67.1097C39.4 68.3297 38.14 69.3597 36.82 70.3197C36.15 70.8097 35.48 71.2897 34.78 71.7397C32.52 73.1997 31.1 74.1697 28.5 74.8497C26.51 75.3797 24.49 75.5897 22.44 75.6197C21.23 75.6297 20.01 75.6397 18.8 75.5297C17.64 75.4297 16.48 75.2397 15.34 74.9997C14.06 74.7297 12.79 74.3897 11.53 74.0097C10.73 73.7697 9.96004 73.4097 9.20004 73.0597C8.33004 72.6597 7.47004 72.2497 6.64004 71.7897C5.25004 71.0097 4.00004 70.0397 2.87004 68.9097C1.71004 67.7397 0.830042 66.3797 0.210042 64.8597C-0.479958 63.1397 0.540042 61.2697 2.27004 60.8197C3.05004 60.6197 3.80004 60.7597 4.45004 61.2797C5.07004 61.7697 5.51004 62.3797 5.74004 63.1497C6.31004 65.0797 7.45004 66.5897 8.99004 67.8597C10.34 68.9597 11.87 69.6897 13.47 70.3097C14.78 70.8097 16.12 71.2097 17.49 71.4897C19.17 71.8197 20.87 71.8997 22.55 71.5897C23.04 71.4997 23.51 71.2597 23.98 71.0397C25.51 70.3297 26.7 69.2197 27.62 67.8197C27.95 67.3097 28.13 66.7397 28.26 66.1597C28.61 64.6497 28.59 63.1197 28.4 61.5997C28.33 61.0197 28.08 60.4397 27.82 59.9097C26.55 57.3997 25.3 54.8897 23.86 52.4697C22.75 50.5897 21.81 48.6197 21.04 46.5697C20.6 45.3897 20.14 44.2297 19.71 43.0497C19.49 42.4397 19.31 41.7997 19.11 41.1797C18.89 40.4897 18.66 39.7997 18.46 39.0997C18.28 38.4597 18.15 37.7997 17.99 37.1497C17.89 36.7297 17.79 36.3197 17.71 35.8997C17.62 35.4397 17.52 34.9797 17.47 34.5097C17.37 33.5597 17.31 32.6097 17.23 31.6497C17.21 31.4397 17.18 31.2197 17.2 31.0097C17.27 29.8297 17.34 28.6497 17.45 27.4697C17.58 26.0397 17.97 24.6697 18.42 23.3097C19.4 20.4097 20.9 17.7897 22.72 15.3597C23.72 14.0297 24.85 12.7897 25.98 11.5597C26.95 10.4997 28.12 9.66968 29.29 8.84968C32.28 6.76968 35.48 5.06968 38.82 3.64968C40.27 3.02968 41.73 2.46968 43.25 2.06968C44.57 1.71968 45.9 1.37968 47.24 1.07968C48.35 0.829678 49.47 0.589678 50.6 0.419678C52.19 0.169678 53.8 0.049678 55.42 0.019678C57.09 -0.010322 58.76 -0.050322 60.43 0.039678C60.71 0.059678 60.99 0.109678 61.27 0.149678C61.35 0.159678 61.44 0.189678 61.52 0.199678C62.16 0.239678 62.78 0.409678 63.4 0.539678C65.8 1.03968 68.01 2.00968 70.13 3.20968C71.93 4.22968 73.54 5.48968 74.86 7.09968C75.38 7.72968 75.84 8.39968 76.14 9.15968C76.58 10.3097 76.59 11.4197 75.81 12.4397C75.12 13.3497 73.71 13.6897 72.76 12.9497C72.35 12.6297 72.1001 12.1897 71.94 11.7197C71.6701 10.8997 71.2001 10.1997 70.65 9.56968C69.17 7.85968 67.49 6.37968 65.46 5.35968C64.41 4.82968 63.3 4.34968 62.11 4.20968C60.79 4.04968 59.47 4.06968 58.14 4.26968C56.38 4.53968 55.08 5.51968 53.88 6.71968C52.78 7.81968 52.16 9.16968 51.82 10.6797C51.54 11.9197 51.42 13.1597 51.53 14.4197C51.62 15.3997 51.77 16.3697 51.99 17.3297C52.33 18.8197 53.03 20.1397 53.86 21.4097C54.63 22.5897 55.28 23.8397 56.05 25.0197C56.52 25.7397 56.85 26.5197 57.25 27.2697C58.25 29.1597 59.16 31.0997 59.84 33.1297C60.27 34.4197 60.71 35.6997 61.13 36.9797C61.57 38.3597 61.83 39.7797 62.09 41.1897C62.47 43.2297 62.57 45.2797 62.34 47.3297C62.21 48.5297 61.99 49.7297 61.72 50.9097C60.62 55.5997 58.22 59.5397 54.86 62.9597C53.14 64.7097 51.28 66.2797 49.3 67.7197C46.45 69.7797 43.38 71.4297 40 72.4497C39.79 72.5097 39.57 72.5497 39.36 72.5997C39.35 72.5597 39.33 72.5197 39.32 72.4797L39.33 72.5297Z" fill="white" fill-opacity="0.3"/>
<path d="M92.771 53.6501C92.771 48.8201 92.681 43.9901 92.791 39.1601C93.071 27.3401 104.461 20.5301 115.131 25.4701C117.021 26.3501 120.001 26.4301 121.861 25.5501C132.371 20.5901 143.121 26.4401 143.701 38.2301C144.221 48.7001 143.791 59.2101 143.921 69.7101C143.961 73.4001 141.721 73.4901 139.001 73.6201C135.821 73.7701 134.511 72.6801 134.561 69.3501C134.711 59.6901 134.681 50.0301 134.591 40.3701C134.551 35.7101 131.871 32.8901 128.091 33.3401C124.161 33.8101 122.981 36.4501 123.011 40.0701C123.081 49.5601 122.961 59.0601 123.121 68.5501C123.181 72.0601 122.241 73.6901 118.361 73.6701C114.421 73.6501 113.151 72.2501 113.251 68.3501C113.491 59.3601 113.381 50.3601 113.321 41.3701C113.291 35.8101 111.321 33.2201 107.411 33.3001C103.551 33.3801 101.711 35.9701 101.691 41.6201C101.651 50.6201 101.571 59.6101 101.751 68.6001C101.821 72.2101 100.671 73.6201 96.911 73.6701C92.941 73.7301 92.671 71.6601 92.741 68.6401C92.861 63.6501 92.771 58.6501 92.781 53.6501H92.771Z" fill="white" fill-opacity="0.3"/>
<path d="M215.901 73.5698C202.111 73.6498 191.081 62.0398 191.051 48.9498C191.021 34.9298 202.271 23.7398 216.451 23.7598C230.551 23.7798 241.161 34.5198 241.401 48.7198C241.631 62.5498 230.271 73.7698 215.901 73.5698ZM231.871 49.1398C231.951 39.7798 225.641 32.9598 216.661 32.7898C207.401 32.6198 200.681 39.4098 200.681 48.9398C200.681 58.4598 206.911 65.0898 215.991 65.1798C225.611 65.2698 231.781 59.0298 231.861 49.1498L231.871 49.1398Z" fill="white" fill-opacity="0.3"/>
<path d="M150.761 48.7998C150.761 41.8098 150.571 34.3798 150.881 27.3998C150.941 26.0898 152.931 23.7398 153.971 23.7698C160.741 23.9598 167.651 23.9898 174.221 25.3998C182.991 27.2798 187.301 34.1998 186.981 43.6798C186.671 53.0698 181.741 59.8498 173.191 61.8098C171.731 62.1398 170.231 62.6798 168.781 62.6098C163.051 62.3098 159.961 62.8898 160.441 69.8598C160.731 74.0298 158.531 74.3298 156.011 74.3298C151.201 74.3298 150.631 73.6098 150.721 70.3898C150.821 66.7298 150.761 62.9598 150.761 59.2998C150.761 55.7998 150.761 52.3098 150.761 48.8098V48.7998ZM160.781 50.6098C160.941 51.8098 161.911 53.4998 162.931 53.8898C167.301 55.5698 173.781 52.8598 175.931 48.7798C178.211 44.4798 177.171 37.0398 173.031 34.9398C169.871 33.3298 164.411 32.9998 160.761 32.9798L160.781 50.6098Z" fill="white" fill-opacity="0.3"/>
<path d="M256.33 43.9501C256.33 49.2801 256.33 54.6001 256.33 59.9301C256.33 64.0601 258.44 66.0401 262.49 66.0701C266.49 66.1001 270.48 66.1801 274.48 66.0701C277.09 66.0001 278.53 66.7001 278.49 69.6801C278.46 72.3501 277.71 73.6601 274.79 73.6001C267.8 73.4701 260.81 73.6201 253.82 73.5201C249.7 73.4601 246.93 70.9301 246.83 67.1201C246.48 53.8101 246.59 40.4901 246.61 27.1701C246.61 23.0901 249.39 23.9201 251.67 23.7601C254.04 23.5801 256.58 24.0301 256.41 27.4701C256.32 32.9601 256.39 38.4601 256.39 43.9501H256.35H256.33Z" fill="white" fill-opacity="0.3"/>
<path d="M75.1202 48.3897C75.1202 41.7397 75.2902 35.0897 75.0502 28.4497C74.9202 24.7697 76.5502 23.9297 79.8202 23.9297C83.0802 23.9297 85.1602 24.3097 85.1102 28.4297C84.9302 42.0597 84.9502 55.6897 85.0902 69.3197C85.1302 73.1197 83.1902 73.6597 80.0902 73.6097C77.0802 73.5597 74.9502 73.2397 75.0702 69.3297C75.2902 62.3597 75.1302 55.3697 75.1302 48.3897H75.1202Z" fill="white" fill-opacity="0.3"/>
</g>
<defs>
<clipPath id="clip0_2025_620">
<rect width="278.49" height="75.64" fill="white"/>
</clipPath>
</defs>
</svg>
