<svg width="180" height="49" viewBox="0 0 180 49" fill="none" xmlns="http://www.w3.org/2000/svg">
<g clip-path="url(#clip0_2041_8)">
<path d="M25.4199 46.9851C25.5039 46.8296 25.659 46.7389 25.8012 46.6418C26.1179 46.4215 26.454 46.2207 26.7643 45.9875C29.285 44.0894 30.8039 41.5954 31.2499 38.4535C31.3404 37.8122 31.4115 37.1644 31.4438 36.5231C31.5343 34.7675 31.0883 33.135 30.3062 31.5803C29.8215 30.6151 29.2268 29.7276 28.5999 28.8595C28.2702 28.4125 28.0052 27.9267 27.7402 27.4408C27.5011 26.9938 27.2232 26.5728 26.9711 26.1258C26.5639 25.4002 26.1826 24.6617 25.8982 23.8779C25.6913 23.3013 25.6138 22.6924 25.5621 22.0187C25.213 22.2066 25.0709 22.6017 25.0579 22.6535C24.9093 23.3013 24.8252 23.7937 24.8252 24.4609C24.8252 25.2642 25.0515 26.0092 25.2971 26.7541C25.7043 27.9915 26.3183 29.1251 26.9646 30.2523C27.5851 31.3341 28.1733 32.4354 28.6387 33.595C29.0846 34.7092 29.0329 35.6226 28.9812 36.821C28.9424 37.6632 28.8261 38.4924 28.587 39.3086C28.3478 40.1184 27.96 40.8698 27.527 41.5889C27.1262 42.2561 26.6867 42.8975 26.1696 43.474C25.4651 44.2643 24.6507 44.9316 23.7976 45.5535C23.3645 45.8709 22.9315 46.1818 22.479 46.4733C21.0183 47.4191 20.1005 48.0475 18.42 48.488C17.1338 48.8314 15.8282 48.9674 14.5031 48.9868C13.7211 48.9933 12.9325 48.9998 12.1505 48.9285C11.4007 48.8637 10.6509 48.7407 9.91412 48.5852C9.0868 48.4103 8.26594 48.19 7.45155 47.9439C6.93447 47.7884 6.43679 47.5552 5.94557 47.3284C5.38325 47.0693 4.8274 46.8037 4.29093 46.5057C3.39252 46.0004 2.58459 45.3721 1.85422 44.6401C1.10446 43.8821 0.535682 43.0011 0.134949 42.0164C-0.311027 40.9022 0.348242 39.6908 1.46642 39.3993C1.97056 39.2697 2.45532 39.3604 2.87544 39.6973C3.27617 40.0147 3.56057 40.4099 3.70922 40.9087C4.07764 42.159 4.81447 43.1371 5.80984 43.9599C6.6824 44.6724 7.67131 45.1453 8.70545 45.547C9.55216 45.8709 10.4183 46.13 11.3038 46.3114C12.3896 46.5252 13.4884 46.577 14.5742 46.3762C14.891 46.3179 15.1947 46.1624 15.4985 46.0199C16.4874 45.5599 17.2566 44.8409 17.8512 43.9339C18.0645 43.6036 18.1808 43.2343 18.2649 42.8586C18.4911 41.8804 18.4782 40.8893 18.3554 39.9046C18.3101 39.5289 18.1485 39.1531 17.9805 38.8098C17.1596 37.1838 16.3517 35.5578 15.421 33.9901C14.7035 32.7723 14.096 31.4961 13.5983 30.1681C13.3139 29.4037 13.0166 28.6522 12.7386 27.8878C12.5964 27.4926 12.4801 27.078 12.3508 26.6764C12.2086 26.2294 12.06 25.7824 11.9307 25.329C11.8144 24.9144 11.7303 24.4868 11.6269 24.0658C11.5623 23.7937 11.4977 23.5281 11.4459 23.256C11.3878 22.958 11.3231 22.66 11.2908 22.3555C11.2262 21.7401 11.1874 21.1247 11.1357 20.5028C11.1228 20.3668 11.1034 20.2243 11.1163 20.0882C11.1616 19.3238 11.2068 18.5594 11.2779 17.795C11.3619 16.8686 11.614 15.9811 11.9049 15.1001C12.5383 13.2215 13.5078 11.5242 14.6841 9.95007C15.3305 9.08849 16.0608 8.28521 16.7912 7.48841C17.4182 6.80174 18.1744 6.26406 18.9306 5.73286C20.8632 4.38542 22.9315 3.28415 25.0902 2.36427C26.0274 1.96263 26.9711 1.59986 27.9535 1.34074C28.8067 1.11401 29.6664 0.893753 30.5325 0.699411C31.2499 0.53746 31.9738 0.381987 32.7042 0.27186C33.7318 0.109908 34.7725 0.0321718 35.8195 0.0127377C36.8989 -0.00669649 37.9783 -0.0326087 39.0577 0.0256938C39.2387 0.0386499 39.4197 0.0710402 39.6006 0.0969524C39.6523 0.10343 39.7105 0.122865 39.7622 0.129343C40.1759 0.155255 40.5766 0.265382 40.9773 0.349597C42.5286 0.673499 43.957 1.30187 45.3272 2.07924C46.4907 2.74 47.5313 3.55623 48.3844 4.5992C48.7205 5.00732 49.0179 5.44135 49.2118 5.93368C49.4961 6.67865 49.5026 7.39772 48.9985 8.05848C48.5525 8.64798 47.6411 8.86824 47.0271 8.38886C46.7621 8.18156 46.6005 7.89653 46.4971 7.59206C46.3226 7.06086 46.0188 6.6074 45.6633 6.19928C44.7067 5.09153 43.6209 4.13278 42.3088 3.47202C41.6302 3.12868 40.9127 2.81774 40.1436 2.72704C39.2904 2.62339 38.4372 2.63635 37.5776 2.76591C36.44 2.94082 35.5998 3.57567 34.8242 4.35303C34.1132 5.06562 33.7125 5.94016 33.4927 6.91834C33.3117 7.72162 33.2342 8.5249 33.3053 9.34114C33.3634 9.97598 33.4604 10.6044 33.6026 11.2262C33.8223 12.1915 34.2748 13.0466 34.8112 13.8693C35.3089 14.6337 35.729 15.4435 36.2267 16.2079C36.5305 16.6743 36.7438 17.1796 37.0023 17.6654C37.6487 18.8898 38.2369 20.1465 38.6764 21.4616C38.9543 22.2972 39.2387 23.1264 39.5102 23.9556C39.7945 24.8496 39.9626 25.7695 40.1306 26.6829C40.3762 28.0044 40.4409 29.3324 40.2922 30.6604C40.2082 31.4378 40.066 32.2151 39.8915 32.9796C39.1805 36.0178 37.6293 38.5701 35.4576 40.7856C34.3459 41.9193 33.1437 42.9363 31.8639 43.8692C30.0218 45.2036 28.0376 46.2725 25.8529 46.9333C25.7172 46.9721 25.575 46.9981 25.4393 47.0305C25.4328 47.0045 25.4199 46.9786 25.4134 46.9527L25.4199 46.9851Z" fill="#4B7071"/>
<path d="M59.9624 34.7547C59.9624 31.6258 59.9043 28.4969 59.9754 25.368C60.1564 17.711 67.5182 13.2994 74.4147 16.4996C75.6363 17.0697 77.5624 17.1215 78.7646 16.5514C85.5576 13.3383 92.5058 17.128 92.8807 24.7656C93.2168 31.5481 92.9389 38.3565 93.0229 45.1585C93.0487 47.5489 91.6009 47.6072 89.8429 47.6914C87.7875 47.7886 86.9408 47.0825 86.9731 44.9253C87.0701 38.6675 87.0507 32.4097 86.9925 26.1519C86.9666 23.1331 85.2344 21.3063 82.7913 21.5978C80.2511 21.9023 79.4885 23.6125 79.5079 25.9575C79.5531 32.1052 79.4755 38.2594 79.579 44.407C79.6177 46.6808 79.0102 47.7368 76.5024 47.7238C73.9558 47.7108 73.1349 46.8039 73.1995 44.2775C73.3547 38.4537 73.2836 32.6235 73.2448 26.7997C73.2254 23.1979 71.9521 21.5201 69.4249 21.5719C66.93 21.6237 65.7408 23.3015 65.7278 26.9616C65.702 32.7919 65.6503 38.6157 65.7666 44.4394C65.8118 46.778 65.0686 47.6914 62.6383 47.7238C60.0723 47.7627 59.8978 46.4217 59.9431 44.4653C60.0206 41.2328 59.9624 37.9938 59.9689 34.7547H59.9624Z" fill="#3D3D3D"/>
<path d="M139.546 47.6591C130.633 47.7109 123.504 40.1899 123.484 31.7101C123.465 22.6278 130.736 15.3789 139.902 15.3919C149.015 15.4048 155.873 22.3623 156.028 31.5611C156.176 40.5202 148.834 47.7886 139.546 47.6591ZM149.868 31.8332C149.92 25.7697 145.841 21.3517 140.037 21.2415C134.052 21.1314 129.709 25.53 129.709 31.7036C129.709 37.8707 133.735 42.1657 139.604 42.224C145.822 42.2823 149.81 38.24 149.862 31.8396L149.868 31.8332Z" fill="#3D3D3D"/>
<path d="M97.4435 31.6128C97.4435 27.0847 97.3207 22.2715 97.5211 17.7498C97.5598 16.9012 98.8461 15.3788 99.5183 15.3983C103.894 15.5213 108.36 15.5408 112.607 16.4542C118.275 17.6721 121.061 22.1549 120.854 28.2961C120.654 34.379 117.467 38.7711 111.941 40.0408C110.997 40.2546 110.028 40.6044 109.091 40.559C105.387 40.3647 103.39 40.7404 103.7 45.2556C103.888 47.957 102.466 48.1513 100.837 48.1513C97.7279 48.1513 97.3595 47.6849 97.4176 45.5989C97.4823 43.228 97.4435 40.7858 97.4435 38.4148C97.4435 36.1475 97.4435 33.8866 97.4435 31.6193V31.6128ZM103.92 32.7854C104.023 33.5627 104.65 34.6575 105.309 34.9102C108.134 35.9985 112.322 34.2429 113.712 31.5999C115.186 28.8143 114.513 23.9946 111.838 22.6342C109.795 21.5913 106.266 21.3775 103.907 21.3645L103.92 32.7854Z" fill="#3D3D3D"/>
<path d="M165.678 28.471C165.678 31.9238 165.678 35.3702 165.678 38.823C165.678 41.4984 167.042 42.781 169.66 42.8005C172.245 42.8199 174.824 42.8717 177.409 42.8005C179.096 42.7551 180.027 43.2086 180.001 45.1391C179.982 46.8687 179.497 47.7173 177.61 47.6785C173.092 47.5942 168.574 47.6914 164.056 47.6266C161.393 47.5878 159.603 45.9488 159.538 43.4807C159.312 34.8584 159.383 26.2296 159.396 17.6009C159.396 14.9578 161.193 15.4955 162.666 15.3918C164.198 15.2752 165.84 15.5667 165.73 17.7952C165.672 21.3516 165.717 24.9146 165.717 28.471H165.691H165.678Z" fill="#3D3D3D"/>
<path d="M48.5538 31.3473C48.5538 27.0394 48.6637 22.7315 48.5086 18.43C48.4245 16.0461 49.4781 15.502 51.5916 15.502C53.6987 15.502 55.0431 15.7481 55.0108 18.4171C54.8944 27.2467 54.9074 36.0763 54.9978 44.9058C55.0237 47.3675 53.7698 47.7173 51.7661 47.6849C49.8206 47.6525 48.4439 47.4452 48.5215 44.9123C48.6637 40.3971 48.5603 35.869 48.5603 31.3473H48.5538Z" fill="#3D3D3D"/>
</g>
<defs>
<clipPath id="clip0_2041_8">
<rect width="180" height="49" fill="white"/>
</clipPath>
</defs>
</svg>
